HIERARCHY
ROOT Hips
{
	OFFSET 0.000000 0.000000 0.000000
	CHANNELS 6 Xposition Yposition Zposition Zrotation Yrotation Xrotation 
	JOINT LeftUpLeg_virtual
	{
		OFFSET 0.000000 0.000000 0.000000
		CHANNELS 3 Zrotation Yrotation Xrotation
		JOINT LeftUpLeg
		{
			OFFSET 10.205400 -3.823500 0.155100
			CHANNELS 3 Zrotation Yrotation Xrotation
			JOINT LeftLeg
			{
				OFFSET 0.708757 -12.982077 0.567790
				CHANNELS 3 Zrotation Yrotation Xrotation
				JOINT LeftFoot
				{
					OFFSET -0.708756 -10.717838 -2.184338
					CHANNELS 3 Zrotation Yrotation Xrotation
					JOINT LeftToeBase
					{
						OFFSET 0.108149 -7.191104 7.560241
						CHANNELS 3 Zrotation Yrotation Xrotation
						End Site
						{
							OFFSET 0.000000 0.000000 0.000000
						}
					}
				}
			}
		}
	}
	JOINT RightUpLeg_virtual
	{
		OFFSET 0.000000 0.000000 0.000000
		CHANNELS 3 Zrotation Yrotation Xrotation
		JOINT RightUpLeg
		{
			OFFSET -10.205400 -3.823500 0.005500
			CHANNELS 3 Zrotation Yrotation Xrotation
			JOINT RightLeg
			{
				OFFSET -0.708756 -12.982134 0.610632
				CHANNELS 3 Zrotation Yrotation Xrotation
				JOINT RightFoot
				{
					OFFSET 0.708754 -10.717769 -1.945823
					CHANNELS 3 Zrotation Yrotation Xrotation
					JOINT RightToeBase
					{
						OFFSET -0.108140 -7.191069 7.372968
						CHANNELS 3 Zrotation Yrotation Xrotation
						End Site
						{
							OFFSET 0.000000 0.000000 0.000000
						}
					}
				}
			}
		}
	}
	JOINT Spine_virtual
	{
		OFFSET 0.000000 0.000000 0.000000
		CHANNELS 3 Zrotation Yrotation Xrotation
		JOINT Spine
		{
			OFFSET 0.000000 6.876099 0.125700
			CHANNELS 3 Zrotation Yrotation Xrotation
			JOINT Spine1
			{
				OFFSET 0.000000 8.022060 0.146608
				CHANNELS 3 Zrotation Yrotation Xrotation
				JOINT Spine2
				{
					OFFSET 0.000000 9.168068 0.167552
					CHANNELS 3 Zrotation Yrotation Xrotation
					JOINT Neck_virtual
					{
						OFFSET 0.000000 0.000000 0.000000
						CHANNELS 3 Zrotation Yrotation Xrotation
						JOINT Neck
						{
							OFFSET 0.000000 10.314075 0.188496
							CHANNELS 3 Zrotation Yrotation Xrotation
							JOINT Head
							{
								OFFSET 0.000000 7.643700 -2.377400
								CHANNELS 3 Zrotation Yrotation Xrotation
								End Site
								{
									OFFSET 0.000000 0.000000 0.000000
								}
							}
						}
					}
					JOINT LeftShoulder_virtual
					{
						OFFSET 0.000000 0.000000 0.000000
						CHANNELS 3 Zrotation Yrotation Xrotation
						JOINT LeftShoulder
						{
							OFFSET 4.392200 8.824978 0.174984
							CHANNELS 3 Zrotation Yrotation Xrotation
							JOINT LeftArm
							{
								OFFSET 8.771219 -2.981674 -0.026999
								CHANNELS 3 Zrotation Yrotation Xrotation
								JOINT LeftForeArm
								{
									OFFSET 8.512804 0.000000 -0.000000
									CHANNELS 3 Zrotation Yrotation Xrotation
									JOINT LeftHand
									{
										OFFSET 18.484802 0.000000 -0.000000
										CHANNELS 3 Zrotation Yrotation Xrotation
										End Site
										{
											OFFSET 0.000000 0.000000 0.000000
										}
									}
								}
							}
						}
					}
					JOINT RightShoulder_virtual
					{
						OFFSET 0.000000 0.000000 0.000000
						CHANNELS 3 Zrotation Yrotation Xrotation
						JOINT RightShoulder
						{
							OFFSET -4.392200 8.824993 0.141379
							CHANNELS 3 Zrotation Yrotation Xrotation
							JOINT RightArm
							{
								OFFSET -8.771282 -2.981682 -0.094208
								CHANNELS 3 Zrotation Yrotation Xrotation
								JOINT RightForeArm
								{
									OFFSET -8.494598 0.000000 0.000000
									CHANNELS 3 Zrotation Yrotation Xrotation
									JOINT RightHand
									{
										OFFSET -18.483803 0.000000 0.000001
										CHANNELS 3 Zrotation Yrotation Xrotation
										End Site
										{
											OFFSET 0.000000 0.000000 0.000000
										}
									}
								}
							}
						}
					}
				}
			}
		}
	}
}
MOTION
Frames: 11
Frame Time: 0.033333
-2.281622 26.087791 3.011099 179.971550 -2.153885 -179.894533 0.096200 -2.082112 7.412811 -0.651922 7.858068 -82.600729 6.749499 6.450286 86.870553 2.727635 -7.208862 10.685512 0.000000 0.000000 0.000000 3.912805 1.560506 7.538493 11.855695 -7.114911 -80.071216 -1.593186 -2.165264 77.222303 -3.902759 6.054104 13.739030 0.000000 0.000000 0.000000 0.557904 2.607087 5.014057 1.982715 1.196843 -8.064481 -1.378916 -3.277163 5.066851 0.016810 -0.005436 0.039209 -2.015830 -1.308513 9.306675 -9.951119 1.116893 26.470847 0.000000 0.000000 0.000000 0.389052 -0.767567 4.586647 -11.288149 -8.292474 -0.649676 -54.433015 -10.353454 5.844525 146.093061 -80.955562 -129.435937 0.000000 0.000000 0.000000 -4.315332 0.777152 4.095422 26.584527 5.894743 0.252862 47.026044 1.649300 -2.278382 178.434375 68.031594 171.516528 0.000000 0.000000 0.000000 
-2.262224 26.067799 3.022460 -179.971387 -2.204422 -179.829988 0.194758 -2.082946 7.364418 -0.761635 7.963871 -82.794945 6.760255 6.298785 86.818910 2.367576 -7.451541 10.976568 0.000000 0.000000 0.000000 3.913947 1.566335 7.437305 11.957410 -7.124444 -80.099206 -1.617717 -2.141453 77.323178 -4.030853 6.122228 13.724072 0.000000 0.000000 0.000000 0.486623 2.647015 4.903896 1.925841 1.299349 -8.285158 -1.389989 -3.241019 4.958788 -0.015669 -0.002223 -0.016428 -2.016357 -1.270623 9.373846 -9.899148 1.304962 26.410993 0.000000 0.000000 0.000000 0.411041 -0.784556 4.709271 -11.315900 -8.308361 -0.608400 -54.496123 -10.144362 5.592064 147.236858 -80.938438 -130.540488 0.000000 0.000000 0.000000 -4.346052 0.795278 4.209651 26.652679 6.048302 0.305583 47.252536 1.095410 -1.774680 178.722664 67.806416 171.811441 0.000000 0.000000 0.000000 
-2.219396 26.062826 3.054414 -179.945650 -2.276323 -179.948710 0.169458 -1.992763 7.392441 -0.457010 8.132686 -82.793668 6.787618 6.630496 86.765273 2.286524 -7.501556 11.231381 0.000000 0.000000 0.000000 3.887272 1.674788 7.584324 12.060379 -7.072300 -80.140167 -1.667633 -2.149005 77.240601 -4.159487 6.197831 13.800973 0.000000 0.000000 0.000000 0.387864 2.738000 4.852250 1.824990 1.323330 -8.353662 -1.346988 -3.234791 4.907882 -0.007554 -0.003322 0.017229 -1.982738 -1.273946 9.218574 -9.750038 1.226370 26.543497 0.000000 0.000000 0.000000 0.441579 -0.750299 4.583519 -11.178650 -8.379636 -0.583906 -54.117399 -10.137950 4.940484 147.820211 -80.841784 -130.996403 0.000000 0.000000 0.000000 -4.335659 0.821093 4.056204 26.728588 6.254739 0.363774 47.237964 1.006687 -1.419140 178.980189 67.629869 172.073926 0.000000 0.000000 0.000000 
-2.171269 26.066195 3.089897 -179.958232 -2.342570 -179.906937 0.068196 -1.942411 7.265900 -0.411000 8.346151 -82.868465 6.745707 6.660654 86.650095 2.260568 -7.512067 11.545941 0.000000 0.000000 0.000000 3.795981 1.778140 7.563646 12.129076 -6.953824 -80.151013 -1.748429 -2.150214 77.095801 -4.261349 6.273311 13.955339 0.000000 0.000000 0.000000 0.239066 2.827195 4.700200 1.679800 1.301749 -8.555526 -1.258478 -3.239281 4.908319 -0.013481 0.001663 0.029938 -1.844955 -1.264813 9.155750 -9.405038 1.312877 26.820230 0.000000 0.000000 0.000000 0.541194 -0.761260 4.529554 -10.992648 -8.526905 -0.603182 -53.559949 -10.325515 3.925422 148.951823 -80.832065 -132.284918 0.000000 0.000000 0.000000 -4.264737 0.798611 3.999072 26.852462 6.492116 0.336411 47.030811 1.346009 -1.263607 178.936886 67.520272 172.024748 0.000000 0.000000 0.000000 
-2.139159 26.066765 3.121337 -179.893905 -2.447656 -179.929190 0.031121 -1.926187 7.067192 -0.368111 8.529010 -82.837306 6.831918 6.645939 86.648162 2.276069 -7.565137 11.733841 0.000000 0.000000 0.000000 3.765664 1.807623 7.520617 12.189221 -6.758935 -80.076735 -1.732517 -2.072864 76.974039 -4.323588 6.337493 14.121833 0.000000 0.000000 0.000000 0.156183 2.866287 4.395783 1.586162 1.212027 -8.457294 -1.116987 -3.274342 4.828176 -0.013060 -0.020456 0.011586 -1.697669 -1.297992 9.142764 -9.001306 1.123198 27.250230 0.000000 0.000000 0.000000 0.654344 -0.792010 4.450839 -10.891181 -8.788719 -0.557371 -52.991128 -10.631106 2.941326 149.539260 -80.838690 -132.964180 0.000000 0.000000 0.000000 -4.137396 0.763095 3.963642 27.042935 6.650930 0.249696 46.739678 1.695572 -1.338575 178.835827 67.420189 171.915411 0.000000 0.000000 0.000000 
-2.124439 26.050200 3.125214 -179.883646 -2.476678 -179.925447 -0.065949 -1.837313 6.851202 -0.368472 8.650964 -82.793975 6.889800 6.596501 86.796767 2.282893 -7.633547 11.743672 0.000000 0.000000 0.000000 3.640266 1.919089 7.409805 12.134964 -6.489880 -79.976290 -2.012193 -1.938626 77.098240 -4.190432 6.481379 14.040169 0.000000 0.000000 0.000000 0.021657 2.940059 4.076047 1.462521 1.183702 -8.449284 -0.980174 -3.239528 4.856014 0.010095 0.026449 0.021132 -1.539984 -1.324766 9.161040 -8.418709 1.404411 27.811755 0.000000 0.000000 0.000000 0.774579 -0.836229 4.425192 -10.875992 -9.050469 -0.655444 -52.668149 -10.699219 2.161457 150.697838 -80.986284 -134.251794 0.000000 0.000000 0.000000 -4.012154 0.696334 3.934844 27.292090 6.679172 0.119283 46.514818 1.882684 -1.551798 178.715069 67.309779 171.798915 0.000000 0.000000 0.000000 
-2.120149 26.018114 3.080011 -179.940774 -2.598384 -179.933657 -0.157191 -1.775735 6.718421 -0.403871 8.717900 -82.737708 7.152328 6.526108 87.122478 2.104059 -7.935187 11.589760 0.000000 0.000000 0.000000 3.462123 1.995648 7.330483 11.794834 -6.128639 -79.897798 -1.940361 -1.869600 77.499759 -4.222468 6.470742 13.655222 0.000000 0.000000 0.000000 -0.120472 2.995224 3.746738 1.330394 1.103598 -8.476755 -0.878669 -3.250315 4.897957 0.011899 0.016974 0.024676 -1.379184 -1.357916 9.223009 -7.874488 1.404994 28.475624 0.000000 0.000000 0.000000 0.887061 -0.827203 4.396531 -11.021898 -9.253302 -0.693958 -52.601531 -10.510601 1.796280 151.197630 -81.092521 -134.907929 0.000000 0.000000 0.000000 -3.887369 0.611477 3.968742 27.557208 6.740660 -0.040900 46.478461 1.686512 -2.126995 178.315612 67.140179 171.402996 0.000000 0.000000 0.000000 
-2.112555 25.979973 3.007658 -179.972261 -2.880708 -179.873291 -0.270748 -1.775772 6.606290 -0.466662 8.803915 -82.863432 7.151060 6.632785 87.492237 2.347932 -7.958747 11.421967 0.000000 0.000000 0.000000 3.310415 2.076731 7.306742 11.558967 -5.742251 -79.945759 -1.977003 -1.671107 78.101601 -4.146519 6.491985 13.117298 0.000000 0.000000 0.000000 -0.268251 3.082112 3.397128 1.198390 1.027266 -8.609949 -0.808315 -3.273444 4.909812 -0.003110 -0.006986 0.003272 -1.290105 -1.489850 9.318734 -7.389442 1.332206 29.157350 0.000000 0.000000 0.000000 0.974986 -0.833701 4.416714 -11.227514 -9.445109 -0.615379 -52.685590 -10.226037 1.452854 152.073506 -81.224657 -135.951364 0.000000 0.000000 0.000000 -3.807993 0.668886 3.936205 27.829234 6.534785 -0.166003 46.610977 1.253487 -2.855139 178.297608 66.995037 171.401152 0.000000 0.000000 0.000000 
-2.098765 25.944489 2.928539 -179.978968 -3.013543 -179.948423 -0.332825 -1.541669 6.637018 -0.496222 8.926427 -82.933420 7.241115 6.744916 87.854804 2.442736 -8.142309 11.294430 0.000000 0.000000 0.000000 3.219101 2.268978 7.382422 11.279136 -5.345838 -79.937693 -2.005078 -1.507989 78.700472 -4.112693 6.459189 12.577646 0.000000 0.000000 0.000000 -0.376554 3.214029 3.217946 1.123238 1.000443 -8.734927 -0.732896 -3.273238 4.969300 0.003172 -0.002540 0.028002 -1.196036 -1.364948 9.332263 -6.869747 1.329254 29.854709 0.000000 0.000000 0.000000 1.015894 -0.734569 4.428357 -11.471846 -9.638889 -0.543290 -52.896062 -9.714723 1.341241 152.565553 -81.328709 -136.638385 0.000000 0.000000 0.000000 -3.735264 0.666867 3.930579 28.131586 6.392891 -0.368719 46.893914 0.677005 -3.732910 178.240275 66.936646 171.362534 0.000000 0.000000 0.000000 
-2.085687 25.927237 2.873103 -179.917619 -3.240746 -179.897894 -0.355551 -1.500249 6.592568 -0.500892 9.052746 -83.105309 7.301375 6.843553 88.096299 2.607348 -8.261765 11.263535 0.000000 0.000000 0.000000 3.173664 2.338363 7.414222 11.035579 -5.030382 -79.996651 -2.111204 -1.382002 79.051086 -3.951608 6.519614 12.245796 0.000000 0.000000 0.000000 -0.436506 3.323722 3.026863 1.073038 0.977003 -8.935429 -0.678790 -3.286763 4.991378 0.024468 -0.007822 0.026937 -1.132252 -1.239248 9.417617 -6.398355 1.300117 30.508276 0.000000 0.000000 0.000000 1.018493 -0.867374 4.466765 -11.683325 -9.673147 -0.495861 -52.997589 -9.215015 1.121567 153.098663 -81.492059 -137.311172 0.000000 0.000000 0.000000 -3.698689 0.625841 3.952939 28.316182 6.207654 -0.498103 47.132547 -0.003123 -4.875120 178.154556 66.949036 171.287484 0.000000 0.000000 0.000000 
-2.089165 25.928934 2.861141 -179.967425 -3.231441 -179.885299 -0.466207 -1.397364 6.567412 -0.517159 9.124490 -83.188309 7.320211 6.928375 88.123913 2.716305 -8.366706 11.347906 0.000000 0.000000 0.000000 3.104347 2.500627 7.442307 10.826346 -4.858521 -80.017046 -2.185145 -1.369118 79.181673 -3.809439 6.576855 12.221738 0.000000 0.000000 0.000000 -0.546349 3.405602 2.950102 1.018526 0.990223 -9.077934 -0.643468 -3.287901 5.004986 -0.009888 0.015601 0.020448 -1.069701 -1.421972 9.474723 -6.109316 1.299640 31.014308 0.000000 0.000000 0.000000 1.111992 -0.895518 4.480630 -11.821447 -9.734518 -0.475808 -52.985384 -8.912345 0.771488 153.412496 -81.633642 -137.749725 0.000000 0.000000 0.000000 -3.628197 0.604286 4.000703 28.383041 6.058915 -0.631644 47.272385 -0.603292 -6.001292 178.177028 67.077608 171.315242 0.000000 0.000000 0.000000 
